<svg xmlns="http://www.w3.org/2000/svg" style="display: none;">

	<symbol id="douban" preserveAspectRatio="xMidYMid" viewBox="0 0 32 28">
		<path d="M9.731,18.328 C11.034,20.105 12.209,22.341 13.238,24.849 L19.561,24.849 C20.791,22.914 21.741,20.676 22.669,18.328 L26.237,19.527 C25.304,21.507 24.169,23.344 23.102,24.849 L31.955,24.849 L32.000,28.000 L-0.000,28.000 L-0.000,25.000 L9.697,24.849 C8.860,23.229 7.803,21.397 6.449,19.527 L9.731,18.328 ZM1.000,-0.000 L31.000,-0.000 L31.000,3.000 L1.000,3.000 L1.000,-0.000 ZM4.132,5.882 L28.000,6.000 L28.000,18.000 L4.000,18.000 L4.132,5.882 ZM25.000,15.000 L25.126,8.838 L7.000,9.000 L7.000,15.000 L25.000,15.000 Z"/>
	</symbol>
	<symbol id="facebook" preserveAspectRatio="xMidYMid" viewBox="0 0 18 33">
		<path d="M14.000,6.000 L17.986,5.871 L18.000,0.000 L13.000,0.000 C6.681,0.056 5.000,3.428 5.000,8.000 L5.000,11.000 L-0.000,11.000 L-0.000,17.000 L5.000,17.000 L5.000,33.000 L12.000,33.000 L12.000,17.000 L18.000,17.000 L17.986,11.034 L12.000,11.000 L12.000,8.000 C12.000,6.905 11.764,6.113 14.000,6.000 Z"/>
	</symbol>
	<symbol id="github" preserveAspectRatio="xMidYMid" viewBox="0 0 34 33.19">
		<path d="M17.006,0.005 C7.613,0.005 -0.002,7.540 -0.002,16.835 C-0.002,24.743 5.512,31.374 12.941,33.177 C12.939,31.096 12.933,27.138 12.931,26.994 C12.900,26.975 9.707,28.826 8.078,25.589 C7.881,25.189 7.486,23.853 6.496,23.104 C6.460,23.074 5.729,22.705 5.662,22.342 C5.654,22.291 5.709,22.185 5.781,22.159 C5.856,22.131 7.059,21.642 8.401,23.327 C8.805,23.890 9.718,26.053 12.914,24.716 C12.999,24.383 13.309,23.619 14.000,23.000 C9.241,22.438 7.254,21.046 6.579,17.020 C6.158,14.275 6.968,11.993 8.184,10.867 C8.000,10.627 7.392,8.622 8.336,6.500 C9.359,6.297 11.235,7.024 12.883,8.199 C15.208,7.367 18.990,7.167 21.136,8.199 C21.878,7.592 24.529,6.173 25.666,6.503 C26.001,7.346 26.483,9.387 25.817,10.874 C27.298,12.383 27.716,14.331 27.449,16.725 C27.121,20.352 25.042,22.573 20.000,23.000 C20.840,23.587 22.000,24.634 22.000,26.000 C22.000,27.468 22.001,30.989 22.000,33.000 C29.040,30.941 34.014,24.470 34.014,16.835 C34.014,7.540 26.399,0.005 17.006,0.005 Z"/>
	</symbol>
	<symbol id="gmail" preserveAspectRatio="xMidYMid" viewBox="0 0 34 24.75">
		<path d="M33.738,1.184 C33.708,1.128 33.674,1.073 33.639,1.020 C33.635,1.014 33.631,1.006 33.627,0.999 C33.621,0.992 33.615,0.985 33.610,0.977 C33.579,0.932 33.546,0.888 33.512,0.846 C33.506,0.838 33.500,0.830 33.494,0.823 C33.454,0.775 33.413,0.729 33.369,0.685 C33.364,0.680 33.360,0.674 33.355,0.669 C33.347,0.661 33.338,0.655 33.331,0.647 C33.295,0.612 33.258,0.579 33.220,0.546 C33.209,0.537 33.198,0.527 33.186,0.517 C33.139,0.478 33.090,0.442 33.039,0.407 C33.034,0.403 33.030,0.399 33.025,0.396 C33.015,0.390 33.005,0.384 32.995,0.378 C32.955,0.352 32.914,0.326 32.871,0.303 C32.856,0.294 32.840,0.285 32.824,0.276 C32.770,0.247 32.715,0.220 32.659,0.196 C32.654,0.194 32.651,0.192 32.646,0.190 C32.636,0.186 32.624,0.182 32.614,0.178 C32.568,0.159 32.522,0.142 32.475,0.127 C32.456,0.121 32.437,0.115 32.418,0.109 C32.359,0.091 32.298,0.075 32.236,0.062 C32.233,0.061 32.231,0.060 32.228,0.060 C32.218,0.058 32.208,0.057 32.198,0.055 C32.146,0.045 32.093,0.037 32.040,0.031 C32.019,0.029 31.998,0.026 31.977,0.024 C31.917,0.019 31.856,0.016 31.795,0.015 C31.789,0.015 31.784,0.014 31.779,0.014 L31.779,0.014 L31.678,0.014 L31.677,0.015 L30.240,1.067 L30.134,1.145 L17.119,10.674 L3.873,0.975 L2.561,0.015 L2.561,0.014 L2.228,0.014 C1.273,0.014 0.462,0.617 0.144,1.463 C0.053,1.708 -0.000,1.972 -0.000,2.249 L-0.000,22.513 C-0.000,22.515 0.000,22.518 0.000,22.520 C0.001,22.586 0.004,22.651 0.010,22.715 C0.012,22.735 0.014,22.755 0.017,22.775 C0.023,22.825 0.030,22.874 0.039,22.923 C0.043,22.941 0.045,22.960 0.049,22.979 C0.061,23.034 0.075,23.089 0.091,23.143 C0.092,23.145 0.092,23.147 0.093,23.149 C0.104,23.185 0.116,23.219 0.128,23.253 C0.138,23.282 0.148,23.312 0.160,23.340 C0.172,23.372 0.186,23.403 0.200,23.435 C0.214,23.465 0.228,23.495 0.244,23.524 C0.258,23.553 0.273,23.581 0.288,23.609 C0.307,23.642 0.327,23.674 0.347,23.706 C0.362,23.729 0.376,23.753 0.391,23.776 C0.427,23.828 0.464,23.878 0.504,23.927 C0.516,23.942 0.529,23.955 0.541,23.969 C0.572,24.005 0.604,24.041 0.637,24.074 C0.654,24.092 0.672,24.109 0.690,24.127 C0.720,24.155 0.751,24.183 0.782,24.210 C0.802,24.227 0.822,24.244 0.842,24.260 C0.875,24.286 0.909,24.311 0.943,24.336 C0.963,24.350 0.983,24.364 1.003,24.377 C1.045,24.405 1.088,24.431 1.131,24.456 C1.145,24.464 1.159,24.472 1.173,24.480 C1.230,24.511 1.289,24.539 1.349,24.565 C1.369,24.574 1.388,24.580 1.408,24.588 C1.450,24.605 1.493,24.621 1.537,24.636 C1.562,24.644 1.588,24.651 1.613,24.658 C1.653,24.670 1.693,24.680 1.734,24.689 C1.761,24.696 1.788,24.701 1.816,24.707 C1.858,24.715 1.900,24.721 1.943,24.726 C1.969,24.729 1.995,24.734 2.021,24.736 C2.080,24.741 2.139,24.744 2.199,24.745 C2.209,24.745 2.218,24.746 2.228,24.746 L3.873,24.746 L3.873,6.295 L13.487,13.334 L16.647,15.648 L16.647,15.648 L16.647,15.648 L16.647,15.648 L16.679,15.672 L17.229,16.075 L17.229,16.075 L17.230,16.075 L19.468,14.436 L20.863,13.415 L27.977,8.206 L30.134,6.627 L30.134,24.746 L31.779,24.746 C31.789,24.746 31.799,24.745 31.809,24.745 C31.868,24.744 31.927,24.741 31.986,24.736 C32.002,24.734 32.019,24.732 32.035,24.730 C32.042,24.729 32.048,24.728 32.054,24.727 C32.058,24.727 32.061,24.726 32.064,24.726 C32.107,24.721 32.149,24.715 32.191,24.707 C32.193,24.706 32.194,24.706 32.196,24.706 C32.208,24.703 32.221,24.700 32.233,24.698 C32.247,24.695 32.260,24.692 32.273,24.689 C32.314,24.680 32.354,24.670 32.393,24.658 C32.419,24.651 32.445,24.644 32.470,24.636 C32.514,24.621 32.557,24.605 32.599,24.588 C32.602,24.587 32.604,24.586 32.607,24.585 C32.623,24.578 32.640,24.573 32.656,24.566 C32.656,24.566 32.657,24.566 32.658,24.565 C32.718,24.539 32.777,24.511 32.834,24.480 C32.849,24.472 32.862,24.463 32.877,24.455 C32.920,24.430 32.963,24.405 33.004,24.377 C33.025,24.364 33.044,24.349 33.064,24.335 C33.098,24.311 33.132,24.286 33.165,24.260 C33.165,24.260 33.165,24.259 33.166,24.259 C33.185,24.243 33.205,24.227 33.224,24.211 C33.224,24.211 33.225,24.210 33.225,24.210 C33.256,24.183 33.286,24.156 33.316,24.127 C33.325,24.119 33.333,24.110 33.342,24.102 C33.352,24.093 33.361,24.084 33.370,24.075 C33.371,24.074 33.371,24.074 33.371,24.074 C33.403,24.041 33.434,24.006 33.464,23.971 C33.466,23.968 33.469,23.966 33.471,23.963 C33.482,23.951 33.493,23.940 33.503,23.927 C33.503,23.927 33.503,23.927 33.503,23.927 C33.543,23.878 33.580,23.828 33.616,23.776 C33.616,23.776 33.616,23.775 33.616,23.775 C33.632,23.753 33.645,23.730 33.660,23.707 C33.660,23.706 33.661,23.705 33.661,23.704 C33.681,23.673 33.700,23.642 33.718,23.610 C33.719,23.610 33.719,23.609 33.719,23.609 C33.722,23.604 33.724,23.600 33.726,23.596 C33.739,23.572 33.752,23.548 33.764,23.523 C33.779,23.494 33.793,23.465 33.806,23.436 C33.821,23.404 33.835,23.372 33.848,23.339 C33.859,23.312 33.868,23.284 33.878,23.255 C33.882,23.245 33.885,23.234 33.889,23.223 C33.898,23.199 33.906,23.175 33.914,23.151 C33.914,23.150 33.914,23.149 33.914,23.149 C33.915,23.147 33.916,23.145 33.916,23.143 C33.932,23.089 33.946,23.035 33.958,22.980 C33.958,22.979 33.958,22.978 33.958,22.977 C33.962,22.960 33.964,22.943 33.967,22.927 C33.968,22.925 33.968,22.923 33.968,22.921 C33.977,22.873 33.985,22.825 33.990,22.776 C33.993,22.755 33.995,22.735 33.997,22.714 C34.003,22.651 34.006,22.588 34.007,22.524 C34.007,22.520 34.007,22.516 34.007,22.513 L34.007,3.791 L34.007,2.937 L34.007,2.249 C34.007,1.863 33.910,1.500 33.738,1.184 Z"/>
	</symbol>
	<symbol id="jianshu" preserveAspectRatio="xMidYMid" viewBox="0 0 31 32.031">
		<path d="M9.000,2.000 L7.686,2.442 L6.000,4.000 L12.000,4.000 L13.971,2.578 L16.206,4.884 L8.663,4.884 C10.060,5.518 10.874,6.060 11.108,6.512 C11.339,6.966 11.457,7.281 11.457,7.461 C11.457,7.644 11.363,7.915 11.177,8.275 C10.990,8.638 10.710,8.865 10.339,8.954 C9.966,9.045 9.732,8.774 9.641,8.140 C9.453,7.597 9.244,7.078 9.012,6.580 C8.779,6.084 8.384,5.518 7.825,4.884 L5.730,4.884 C5.077,5.426 4.333,6.152 3.495,7.054 C2.563,8.051 1.492,9.000 0.283,9.903 L0.003,9.496 C1.212,8.231 2.399,6.739 3.565,5.019 C4.728,3.303 5.590,1.628 6.149,-0.000 L9.000,2.000 ZM6.000,14.000 C5.547,24.453 5.509,27.101 6.000,31.000 L3.000,32.000 C3.091,27.842 3.000,24.205 3.000,20.000 C3.000,15.794 3.091,12.448 3.000,11.000 L7.000,12.000 L6.000,14.000 ZM5.870,8.004 C8.011,9.089 9.244,9.882 9.571,10.378 C9.896,10.876 10.060,11.307 10.060,11.667 C10.060,11.938 9.966,12.256 9.781,12.616 C9.593,12.979 9.313,13.250 8.943,13.430 C8.569,13.613 8.336,13.386 8.244,12.752 C8.056,12.209 7.777,11.578 7.406,10.853 C7.033,10.130 6.429,9.361 5.590,8.547 L5.870,8.004 ZM10.000,28.000 C10.414,24.710 10.303,21.857 10.000,19.000 C9.700,16.173 10.099,14.276 10.000,13.000 L12.419,14.300 L18.781,14.300 L19.689,12.829 L22.909,14.784 L21.000,16.000 C21.000,21.788 20.856,25.300 21.697,26.406 L19.000,27.000 L19.000,26.000 L12.000,26.000 L12.419,27.393 L10.000,28.000 ZM21.000,28.000 C22.676,28.180 23.302,28.953 24.000,29.000 C24.698,29.044 24.627,29.089 25.000,29.000 C25.371,28.909 26.000,28.543 26.000,28.000 L26.000,11.000 L16.000,11.000 C15.253,11.000 14.023,11.729 13.000,12.000 L12.016,10.039 L26.262,10.039 L27.519,8.818 L29.475,10.717 L28.000,12.000 L28.000,29.000 C28.000,29.631 28.078,29.686 27.799,30.185 C27.519,30.680 25.659,31.562 24.450,32.016 C24.077,30.659 22.446,29.710 19.562,29.167 L21.000,28.000 ZM12.000,15.000 L12.000,19.000 L19.000,19.000 L19.000,15.000 L12.000,15.000 ZM12.000,20.000 L12.000,25.000 L19.000,25.000 L19.000,20.000 L12.000,20.000 ZM21.793,1.899 L20.536,2.442 L20.000,4.000 L27.000,4.000 L28.777,2.578 L31.011,4.884 L21.793,4.884 C23.469,5.698 24.377,6.264 24.516,6.580 C24.656,6.898 24.726,7.146 24.726,7.326 C24.726,7.508 24.678,7.712 24.586,7.936 C24.492,8.163 24.328,8.367 24.097,8.547 C23.864,8.729 23.700,8.818 23.608,8.818 C23.421,8.818 23.259,8.661 23.120,8.343 C22.980,8.027 22.816,7.553 22.631,6.919 C22.443,6.376 21.978,5.698 21.234,4.884 L18.860,4.884 C17.463,6.332 15.972,7.688 14.390,8.954 L13.971,8.547 C15.368,7.010 16.507,5.450 17.393,3.866 C18.277,2.285 18.905,1.041 19.279,0.136 L21.793,1.899 Z"/>
	</symbol>
	<symbol id="linkedin" preserveAspectRatio="xMidYMid" viewBox="0 0 28 31">
		<path d="M0.735,30.985 L6.680,30.985 L7.000,9.000 L1.000,9.000 L0.735,30.985 ZM24.000,11.000 C21.748,9.738 18.396,9.908 16.000,11.000 L16.000,9.000 L10.000,9.000 L9.901,30.985 L15.879,30.985 L16.000,17.000 L18.374,16.256 C18.986,15.962 20.327,15.989 20.894,16.308 C21.322,16.547 22.040,17.638 22.040,18.244 L22.000,31.000 L27.985,30.985 L27.985,17.995 C27.985,15.216 26.394,12.339 24.000,11.000 ZM3.775,0.007 C1.683,0.007 -0.009,1.699 -0.009,3.786 C-0.009,5.872 1.683,7.563 3.775,7.563 C5.867,7.563 7.557,5.872 7.557,3.786 C7.557,1.699 5.867,0.007 3.775,0.007 Z"/>
	</symbol>
	<symbol id="medium" preserveAspectRatio="xMidYMid" viewBox="0 0 31 23">
		<path d="M-0.000,-0.013 L11.498,-0.013 L15.308,13.521 L19.390,-0.013 L31.009,-0.013 L31.009,3.172 L29.002,3.126 L28.000,4.000 L28.000,19.000 L29.009,19.825 L30.759,19.825 L31.009,23.008 L20.002,23.008 L20.006,19.825 L23.007,19.825 L23.132,3.570 L22.588,3.504 L16.439,23.008 L12.314,23.008 L7.552,3.902 L7.002,20.314 L9.253,20.314 L9.253,23.008 L-0.000,23.008 L-0.000,20.314 L2.751,20.314 L2.851,3.553 L-0.000,3.570 L-0.000,-0.013 Z"/>
	</symbol>
	<symbol id="sina" preserveAspectRatio="xMidYMid" viewBox="0 0 37 30">
		<path d="M36.539,12.806 C36.539,12.808 36.539,12.810 36.539,12.812 C36.297,13.556 35.498,13.964 34.754,13.723 C34.008,13.482 33.600,12.683 33.841,11.937 L33.840,11.937 C34.580,9.646 34.111,7.033 32.384,5.117 C30.656,3.201 28.108,2.470 25.753,2.970 C24.987,3.133 24.234,2.644 24.071,1.878 C23.907,1.114 24.395,0.360 25.161,0.195 L25.162,0.195 C28.472,-0.509 32.058,0.519 34.489,3.217 C36.921,5.911 37.577,9.584 36.539,12.806 ZM26.721,7.506 L26.721,7.505 C26.064,7.648 25.415,7.226 25.274,6.568 C25.133,5.908 25.553,5.259 26.212,5.119 C27.825,4.775 29.572,5.274 30.756,6.588 C31.941,7.901 32.259,9.690 31.752,11.260 C31.545,11.902 30.857,12.252 30.216,12.047 C29.574,11.839 29.224,11.150 29.431,10.509 L29.429,10.509 C29.678,9.741 29.522,8.866 28.943,8.224 C28.365,7.583 27.510,7.340 26.721,7.506 ZM27.210,9.790 C27.851,10.706 27.789,11.990 27.198,13.478 C26.925,14.163 27.283,14.269 27.804,14.426 C29.927,15.084 32.291,16.678 32.291,19.485 C32.291,24.132 25.594,29.985 15.526,29.985 C7.847,29.985 -0.003,26.261 -0.003,20.135 C-0.003,16.933 2.025,13.230 5.516,9.736 C10.179,5.072 15.616,2.947 17.661,4.994 C18.563,5.896 18.650,7.458 18.070,9.323 C17.768,10.262 18.951,9.742 18.951,9.744 C22.720,8.165 26.008,8.072 27.210,9.790 ZM25.923,19.401 C25.526,15.377 20.236,12.605 14.107,13.211 C7.980,13.818 3.333,17.572 3.731,21.597 C4.129,25.623 9.419,28.394 15.547,27.789 C21.676,27.183 26.320,23.428 25.923,19.401 ZM11.584,26.060 C8.638,25.108 7.391,22.198 8.681,19.576 C9.948,17.005 13.243,15.551 16.159,16.310 C19.177,17.090 20.717,19.939 19.484,22.705 C18.233,25.536 14.636,27.045 11.584,26.060 ZM13.248,20.549 C12.299,20.151 11.073,20.560 10.487,21.479 C9.894,22.402 10.173,23.501 11.115,23.930 C12.071,24.367 13.340,23.952 13.933,23.006 C14.515,22.050 14.208,20.958 13.248,20.549 ZM15.587,19.579 C15.223,19.434 14.768,19.609 14.554,19.968 C14.347,20.328 14.461,20.738 14.826,20.888 C15.197,21.041 15.671,20.865 15.885,20.498 C16.090,20.129 15.957,19.714 15.587,19.579 Z"/>
	</symbol>
	<symbol id="twitter" preserveAspectRatio="xMidYMid" viewBox="0 0 32 25.81">
		<path d="M32.010,3.047 C30.832,3.567 29.566,3.916 28.237,4.075 C29.593,3.268 30.634,1.989 31.125,0.469 C29.857,1.215 28.450,1.756 26.955,2.051 C25.757,0.783 24.050,-0.009 22.162,-0.009 C18.535,-0.009 15.594,2.909 15.594,6.510 C15.594,7.017 15.652,7.518 15.764,7.995 C10.307,7.721 5.468,5.127 2.228,1.186 C1.664,2.148 1.339,3.266 1.339,4.460 C1.339,6.723 2.499,8.716 4.261,9.885 C3.185,9.852 2.172,9.557 1.287,9.069 C1.286,9.096 1.286,9.123 1.286,9.152 C1.286,12.310 3.550,14.943 6.554,15.542 C6.003,15.691 5.423,15.769 4.824,15.769 C4.401,15.769 3.989,15.730 3.588,15.653 C4.423,18.243 6.849,20.127 9.723,20.178 C7.475,21.926 4.643,22.969 1.567,22.969 C1.036,22.969 0.514,22.938 -0.000,22.876 C2.906,24.726 6.358,25.805 10.067,25.805 C22.146,25.805 28.751,15.875 28.751,7.264 C28.751,6.982 28.745,6.700 28.733,6.421 C30.017,5.501 31.129,4.354 32.010,3.047 Z"/>
	</symbol>
	<symbol id="xitujuejin" preserveAspectRatio="xMidYMid" viewBox="0 0 37 27">
		<path d="M30.000,17.000 L19.000,-0.000 L37.000,17.000 L30.000,17.000 ZM-0.000,17.000 L18.000,-0.000 L29.000,17.000 L-0.000,17.000 ZM31.000,21.000 L5.000,21.000 L2.000,19.000 L30.000,19.000 L31.000,21.000 ZM25.864,24.055 L10.822,24.055 L8.000,22.000 L28.873,22.002 L25.864,24.055 ZM21.000,27.000 L16.000,27.000 L13.000,25.000 L24.000,25.000 L21.000,27.000 ZM33.000,21.000 L31.131,18.776 L35.000,19.000 L33.000,21.000 Z"/>
	</symbol>
	<symbol id="youtube" preserveAspectRatio="xMidYMid" viewBox="0 0 35 27.53">
		<path d="M7.404,18.903 L9.000,19.000 L9.105,27.339 L10.748,27.339 L10.748,18.903 L12.449,18.903 L12.449,17.470 L7.404,17.470 L7.404,18.903 ZM15.797,25.587 C15.659,25.744 15.509,25.876 15.344,25.976 C15.180,26.079 15.042,26.131 14.937,26.131 C14.800,26.131 14.701,26.092 14.638,26.014 C14.579,25.938 14.548,25.814 14.548,25.641 L14.548,20.056 L13.090,20.056 L13.090,26.144 C13.090,26.579 13.176,26.901 13.346,27.120 C13.517,27.337 13.769,27.445 14.108,27.445 C14.382,27.445 14.664,27.369 14.953,27.212 C15.247,27.058 15.525,26.834 15.797,26.538 L15.797,27.339 L17.255,27.339 L17.255,20.056 L15.797,20.056 L15.797,25.587 ZM21.124,19.969 C20.898,19.969 20.672,20.026 20.450,20.140 C20.231,20.255 20.022,20.426 19.825,20.647 L19.825,17.470 L18.351,17.470 L18.351,27.339 L19.825,27.339 L19.825,26.780 C20.017,27.003 20.226,27.168 20.450,27.272 C20.671,27.380 20.925,27.431 21.212,27.431 C21.644,27.431 21.975,27.295 22.204,27.020 C22.433,26.744 22.547,26.349 22.547,25.833 L22.547,21.792 C22.547,21.197 22.425,20.743 22.180,20.432 C21.937,20.124 21.585,19.969 21.124,19.969 ZM21.043,25.633 C21.043,25.868 21.000,26.033 20.917,26.135 C20.832,26.238 20.702,26.289 20.523,26.289 C20.401,26.289 20.284,26.263 20.172,26.211 C20.059,26.160 19.943,26.071 19.825,25.954 L19.825,21.418 C19.926,21.316 20.024,21.241 20.127,21.195 C20.227,21.146 20.331,21.124 20.436,21.124 C20.631,21.124 20.783,21.186 20.890,21.313 C20.994,21.440 21.043,21.627 21.043,21.875 L21.043,25.633 ZM25.527,19.875 C24.875,19.875 24.344,20.074 23.930,20.470 C23.518,20.869 23.310,21.386 23.310,22.014 L23.310,25.286 C23.310,25.987 23.501,26.538 23.875,26.937 C24.250,27.337 24.764,27.537 25.418,27.537 C26.145,27.537 26.691,27.350 27.054,26.974 C27.422,26.595 27.603,26.032 27.603,25.286 L27.603,24.911 L26.104,24.911 L26.104,25.245 C26.104,25.671 26.053,25.947 25.958,26.073 C25.861,26.200 25.694,26.263 25.452,26.263 C25.219,26.263 25.054,26.190 24.957,26.041 C24.860,25.893 24.815,25.627 24.815,25.245 L24.815,23.871 L27.603,23.871 L27.603,22.014 C27.603,21.326 27.426,20.796 27.068,20.429 C26.709,20.059 26.194,19.875 25.527,19.875 ZM26.104,22.738 L24.815,22.738 L24.815,22.003 C24.815,21.698 24.863,21.478 24.965,21.349 C25.067,21.215 25.233,21.151 25.465,21.151 C25.686,21.151 25.852,21.215 25.950,21.349 C26.051,21.478 26.104,21.698 26.104,22.003 L26.104,22.738 ZM17.645,6.019 C17.444,6.019 17.282,6.073 17.156,6.181 C17.032,6.289 16.969,6.430 16.969,6.606 L16.969,10.974 C16.969,11.195 17.028,11.365 17.144,11.485 C17.260,11.606 17.428,11.666 17.645,11.666 C17.867,11.666 18.043,11.604 18.175,11.482 C18.307,11.358 18.371,11.189 18.371,10.974 L18.371,6.606 C18.371,6.430 18.305,6.289 18.171,6.181 C18.037,6.073 17.862,6.019 17.645,6.019 ZM31.351,-0.015 L3.657,-0.015 C1.643,-0.015 -0.003,1.629 -0.003,3.638 L-0.003,11.400 C-0.003,13.408 1.643,15.050 3.657,15.050 L31.351,15.050 C33.365,15.050 35.011,13.408 35.011,11.400 L35.011,3.638 C35.011,1.629 33.365,-0.015 31.351,-0.015 ZM12.993,8.342 L12.993,12.853 L11.145,12.853 L11.145,8.545 L8.944,1.981 L10.806,1.981 L12.006,6.326 L12.123,6.326 L13.265,1.981 L15.146,1.981 L12.993,8.342 ZM20.045,10.855 C20.045,11.541 19.832,12.077 19.408,12.469 C18.981,12.859 18.395,13.054 17.649,13.054 C16.932,13.054 16.356,12.853 15.924,12.450 C15.495,12.047 15.278,11.504 15.278,10.824 L15.278,6.667 C15.278,6.045 15.499,5.550 15.942,5.181 C16.383,4.815 16.978,4.629 17.723,4.629 C18.403,4.629 18.961,4.825 19.396,5.212 C19.828,5.600 20.045,6.100 20.045,6.711 L20.045,10.855 ZM26.063,12.853 L24.420,12.853 L24.420,11.966 C24.120,12.293 23.805,12.542 23.476,12.713 C23.149,12.883 22.831,12.969 22.524,12.969 C22.142,12.969 21.858,12.848 21.665,12.610 C21.474,12.371 21.377,12.014 21.377,11.534 L21.377,4.832 L23.017,4.832 L23.017,10.981 C23.017,11.171 23.055,11.308 23.123,11.392 C23.191,11.477 23.303,11.522 23.456,11.522 C23.576,11.522 23.730,11.465 23.916,11.352 C24.099,11.239 24.268,11.095 24.420,10.919 L24.420,4.832 L26.063,4.832 L26.063,12.853 Z"/>
	</symbol>
	<symbol id="zhihu" preserveAspectRatio="xMidYMid" viewBox="0 0 31 33">
		<path d="M26.000,28.000 L21.000,33.000 L21.000,28.000 L18.000,28.000 L18.000,5.000 L30.990,5.169 L31.000,5.000 L31.000,28.000 L26.000,28.000 ZM28.000,8.000 L21.000,8.000 L21.000,25.966 L22.000,26.000 L22.000,28.000 L25.853,25.948 L28.000,26.000 L28.000,8.000 ZM11.000,18.000 C9.958,18.010 9.924,17.781 9.877,18.905 C9.847,19.620 9.626,20.326 9.491,21.036 L8.605,23.885 C7.887,25.758 7.075,27.578 5.750,29.136 C4.436,30.679 2.647,30.894 0.797,30.959 C0.509,30.969 0.110,31.015 0.007,30.637 C-0.089,30.282 0.260,30.097 0.487,29.914 C2.436,28.338 3.808,27.190 5.000,25.000 C5.966,23.226 6.684,21.996 7.000,20.000 C7.135,19.145 6.814,17.977 6.000,18.000 C4.488,18.043 1.513,17.985 -0.000,18.000 C-0.049,17.995 0.134,17.516 0.291,17.016 C0.615,15.926 1.373,15.036 2.222,15.052 C3.541,15.076 3.682,14.958 5.000,15.000 C5.835,15.027 7.009,14.868 7.000,14.000 C6.980,12.040 6.945,9.959 7.000,8.000 C7.016,7.438 7.394,7.207 6.862,7.163 C5.133,7.022 4.963,7.101 4.145,8.683 C3.477,9.972 2.099,10.703 0.704,11.049 C-0.049,11.236 0.028,11.210 0.124,10.983 C1.228,8.390 2.427,5.083 3.473,2.478 C3.903,1.408 5.723,0.627 6.776,0.026 C6.776,0.026 7.022,-0.152 6.781,0.596 C6.522,1.402 6.178,2.867 5.891,3.662 C5.590,4.493 5.740,4.923 6.589,4.916 C9.111,4.895 11.772,4.916 14.295,4.916 C14.890,4.916 15.396,4.816 15.769,5.446 C16.982,7.492 16.707,7.146 15.527,7.165 C14.518,7.181 13.008,7.034 12.000,7.000 C11.237,6.974 10.159,7.390 10.124,8.197 C10.030,10.385 9.970,11.999 10.000,14.000 C10.011,14.711 11.496,15.001 12.000,15.000 C13.319,14.998 13.489,15.029 14.808,15.052 C15.885,15.070 16.624,15.943 17.000,17.000 C17.027,17.334 17.269,17.909 17.000,18.000 C15.623,17.986 12.358,17.987 11.000,18.000 ZM15.000,26.000 C15.393,26.583 15.444,27.623 15.000,29.000 C14.912,29.274 14.377,29.137 13.798,28.477 C12.399,26.881 11.116,25.189 9.763,23.555 C9.385,23.098 9.158,22.839 8.985,22.786 L11.000,21.000 C11.922,22.089 14.080,24.910 15.000,26.000 Z"/>
	</symbol>
</svg>